<?xml version="1.0" encoding="UTF-8"?>
<svg xmlns="http://www.w3.org/2000/svg" width="1200" height="800" viewBox="0 0 1200 800">
  <rect width="1200" height="800" fill="#f7f2e8" />
  <rect x="40" y="30" width="1120" height="740" rx="24" fill="#ffffff" stroke="#c9c1b5" />
  <text x="80" y="85" font-family="Arial" font-size="28" fill="#1f1d1b">?????City Sound Map?</text>
  <rect x="80" y="110" width="1040" height="2" fill="#e6dfd4" />
  
  <rect x="80" y="140" width="1040" height="50" rx="12" fill="#f3efe7" stroke="#d8d0c4" />
  <text x="100" y="172" font-family="Arial" font-size="14" fill="#5a534a">LOGO / ?? / ??</text>

  <rect x="80" y="210" width="1040" height="180" rx="18" fill="#f6f1e8" stroke="#d8d0c4" />
  <text x="100" y="250" font-family="Arial" font-size="16" fill="#5a534a">Hero??? + ?? + CTA</text>
  <rect x="100" y="270" width="360" height="16" fill="#e0d8cd" />
  <rect x="100" y="295" width="320" height="16" fill="#e0d8cd" />
  <rect x="100" y="320" width="200" height="36" rx="18" fill="#1f1d1b" />
  <text x="150" y="343" font-family="Arial" font-size="14" fill="#ffffff">????</text>
  <rect x="760" y="235" width="330" height="130" rx="14" fill="#ffffff" stroke="#d8d0c4" />
  <text x="780" y="265" font-family="Arial" font-size="14" fill="#5a534a">????</text>

  <text x="80" y="430" font-family="Arial" font-size="18" fill="#1f1d1b">????</text>
  
  <rect x="80" y="450" width="240" height="140" rx="16" fill="#faf7f2" stroke="#d8d0c4" />
  <text x="96" y="482" font-family="Arial" font-size="14" fill="#5a534a">???? 1</text>
  
  <rect x="340" y="450" width="240" height="140" rx="16" fill="#faf7f2" stroke="#d8d0c4" />
  <text x="356" y="482" font-family="Arial" font-size="14" fill="#5a534a">???? 2</text>
  
  <rect x="600" y="450" width="240" height="140" rx="16" fill="#faf7f2" stroke="#d8d0c4" />
  <text x="616" y="482" font-family="Arial" font-size="14" fill="#5a534a">???? 3</text>
  
  <rect x="860" y="450" width="240" height="140" rx="16" fill="#faf7f2" stroke="#d8d0c4" />
  <text x="876" y="482" font-family="Arial" font-size="14" fill="#5a534a">???? 4</text>

  <text x="80" y="640" font-family="Arial" font-size="18" fill="#1f1d1b">?????</text>
  
  <rect x="80" y="660" width="340" height="90" rx="16" fill="#faf7f2" stroke="#d8d0c4" />
  <text x="96" y="692" font-family="Arial" font-size="14" fill="#5a534a">?????</text>
  
  <rect x="440" y="660" width="340" height="90" rx="16" fill="#faf7f2" stroke="#d8d0c4" />
  <text x="456" y="692" font-family="Arial" font-size="14" fill="#5a534a">????</text>
  
  <rect x="800" y="660" width="320" height="90" rx="16" fill="#faf7f2" stroke="#d8d0c4" />
  <text x="816" y="692" font-family="Arial" font-size="14" fill="#5a534a">????</text>
</svg>