<?xml version="1.0" encoding="UTF-8"?>
<svg xmlns="http://www.w3.org/2000/svg" width="1200" height="800" viewBox="0 0 1200 800">
  <rect width="1200" height="800" fill="#f7f2e8" />
  <rect x="40" y="30" width="1120" height="740" rx="24" fill="#ffffff" stroke="#c9c1b5" />
  <text x="80" y="85" font-family="Arial" font-size="28" fill="#1f1d1b">??????</text>
  <rect x="80" y="110" width="1040" height="2" fill="#e6dfd4" />
  
  <rect x="80" y="140" width="1040" height="50" rx="12" fill="#f3efe7" stroke="#d8d0c4" />
  <text x="100" y="172" font-family="Arial" font-size="14" fill="#5a534a">LOGO / ?? / ??</text>

  <rect x="80" y="210" width="700" height="260" rx="18" fill="#f6f1e8" stroke="#d8d0c4" />
  <text x="100" y="245" font-family="Arial" font-size="16" fill="#5a534a">?? / ?? / ?? / ??</text>
  <rect x="100" y="265" width="420" height="14" fill="#e0d8cd" />
  <rect x="100" y="290" width="520" height="14" fill="#e0d8cd" />
  <rect x="100" y="315" width="480" height="14" fill="#e0d8cd" />
  <rect x="100" y="350" width="260" height="36" rx="18" fill="#1f1d1b" />
  <text x="160" y="373" font-family="Arial" font-size="14" fill="#ffffff">????</text>

  <rect x="800" y="210" width="320" height="260" rx="18" fill="#ffffff" stroke="#d8d0c4" />
  <text x="820" y="245" font-family="Arial" font-size="14" fill="#5a534a">?? + ????</text>
  <rect x="820" y="265" width="280" height="120" fill="#f3efe7" />
  <rect x="820" y="400" width="280" height="36" fill="#e0d8cd" />

  <text x="80" y="510" font-family="Arial" font-size="18" fill="#1f1d1b">???</text>
  
  <rect x="80" y="530" width="520" height="80" rx="16" fill="#faf7f2" stroke="#d8d0c4" />
  <text x="96" y="562" font-family="Arial" font-size="14" fill="#5a534a">?? 1</text>
  
  <rect x="80" y="620" width="520" height="80" rx="16" fill="#faf7f2" stroke="#d8d0c4" />
  <text x="96" y="652" font-family="Arial" font-size="14" fill="#5a534a">?? 2</text>

  <text x="640" y="510" font-family="Arial" font-size="18" fill="#1f1d1b">????</text>
  
  <rect x="640" y="530" width="480" height="80" rx="16" fill="#faf7f2" stroke="#d8d0c4" />
  <text x="656" y="562" font-family="Arial" font-size="14" fill="#5a534a">?? 1</text>
  
  <rect x="640" y="620" width="480" height="80" rx="16" fill="#faf7f2" stroke="#d8d0c4" />
  <text x="656" y="652" font-family="Arial" font-size="14" fill="#5a534a">?? 2</text>
</svg>