<?xml version="1.0" encoding="UTF-8"?>
<svg xmlns="http://www.w3.org/2000/svg" width="1200" height="800" viewBox="0 0 1200 800">
  <rect width="1200" height="800" fill="#f7f2e8" />
  <rect x="40" y="30" width="1120" height="740" rx="24" fill="#ffffff" stroke="#c9c1b5" />
  <text x="80" y="85" font-family="Arial" font-size="28" fill="#1f1d1b">??????????</text>
  <rect x="80" y="110" width="1040" height="2" fill="#e6dfd4" />
  
  <rect x="80" y="140" width="1040" height="50" rx="12" fill="#f3efe7" stroke="#d8d0c4" />
  <text x="100" y="172" font-family="Arial" font-size="14" fill="#5a534a">LOGO / ?? / ??</text>

  <text x="80" y="230" font-family="Arial" font-size="18" fill="#1f1d1b">???</text>
  
  <rect x="80" y="250" width="1040" height="90" rx="16" fill="#faf7f2" stroke="#d8d0c4" />
  <text x="96" y="282" font-family="Arial" font-size="14" fill="#5a534a">?? / ?? / ?? / ??</text>

  <text x="80" y="380" font-family="Arial" font-size="18" fill="#1f1d1b">????</text>
  
  <rect x="80" y="400" width="240" height="150" rx="16" fill="#faf7f2" stroke="#d8d0c4" />
  <text x="96" y="432" font-family="Arial" font-size="14" fill="#5a534a">?? 1</text>
  
  <rect x="340" y="400" width="240" height="150" rx="16" fill="#faf7f2" stroke="#d8d0c4" />
  <text x="356" y="432" font-family="Arial" font-size="14" fill="#5a534a">?? 2</text>
  
  <rect x="600" y="400" width="240" height="150" rx="16" fill="#faf7f2" stroke="#d8d0c4" />
  <text x="616" y="432" font-family="Arial" font-size="14" fill="#5a534a">?? 3</text>
  
  <rect x="860" y="400" width="240" height="150" rx="16" fill="#faf7f2" stroke="#d8d0c4" />
  <text x="876" y="432" font-family="Arial" font-size="14" fill="#5a534a">?? 4</text>
  
  <rect x="80" y="570" width="240" height="150" rx="16" fill="#faf7f2" stroke="#d8d0c4" />
  <text x="96" y="602" font-family="Arial" font-size="14" fill="#5a534a">?? 5</text>
  
  <rect x="340" y="570" width="240" height="150" rx="16" fill="#faf7f2" stroke="#d8d0c4" />
  <text x="356" y="602" font-family="Arial" font-size="14" fill="#5a534a">?? 6</text>
  
  <rect x="600" y="570" width="240" height="150" rx="16" fill="#faf7f2" stroke="#d8d0c4" />
  <text x="616" y="602" font-family="Arial" font-size="14" fill="#5a534a">?? 7</text>
  
  <rect x="860" y="570" width="240" height="150" rx="16" fill="#faf7f2" stroke="#d8d0c4" />
  <text x="876" y="602" font-family="Arial" font-size="14" fill="#5a534a">?? 8</text>
</svg>